<?xml version="1.0" encoding="utf-8"?>
<!-- Generator: Adobe Illustrator 17.0.0, SVG Export Plug-In . SVG Version: 6.00 Build 0)  -->
<!DOCTYPE svg PUBLIC "-//W3C//DTD SVG 1.1//EN" "http://www.w3.org/Graphics/SVG/1.1/DTD/svg11.dtd">
<svg version="1.1" id="Layer_1" xmlns="http://www.w3.org/2000/svg" xmlns:xlink="http://www.w3.org/1999/xlink" x="0px" y="0px"
	 width="18px" height="292.417px" viewBox="0 0 18 292.417" enable-background="new 0 0 18 292.417" xml:space="preserve">
<path fill="#010101" d="M12.418,8.917l0.389-2.534h-2.431V4.739c0-0.693,0.34-1.369,1.428-1.369h1.105V1.213
	c0,0-1.003-0.171-1.962-0.171c-2.002,0-3.311,1.214-3.311,3.41v1.931H5.411v2.534h2.226v6.125h2.739V8.917H12.418z"/>
<path fill="#010101" d="M14.721,30.19c0.009,0.124,0.009,0.249,0.009,0.373c0,3.793-2.887,8.164-8.164,8.164
	c-1.626,0-3.136-0.471-4.406-1.288c0.231,0.027,0.453,0.036,0.693,0.036c1.341,0,2.576-0.453,3.562-1.226
	c-1.261-0.027-2.319-0.853-2.683-1.99c0.178,0.027,0.355,0.044,0.542,0.044c0.258,0,0.515-0.036,0.755-0.098
	c-1.315-0.267-2.301-1.421-2.301-2.816v-0.036c0.382,0.213,0.826,0.346,1.297,0.364c-0.773-0.515-1.279-1.395-1.279-2.39
	c0-0.533,0.142-1.022,0.391-1.448c1.412,1.741,3.536,2.878,5.916,3.003c-0.044-0.213-0.071-0.435-0.071-0.657
	c0-1.581,1.279-2.869,2.869-2.869c0.826,0,1.572,0.346,2.096,0.906c0.648-0.124,1.27-0.364,1.821-0.693
	c-0.213,0.666-0.666,1.226-1.261,1.581c0.577-0.062,1.137-0.222,1.652-0.444C15.769,29.275,15.281,29.781,14.721,30.19z"/>
<path fill="#010101" d="M5.777,64.166h-2.54v-8.179h2.54V64.166z M4.506,54.872c-0.812,0-1.471-0.673-1.471-1.485
	c0-0.812,0.659-1.471,1.471-1.471c0.812,0,1.47,0.658,1.471,1.471C5.977,54.2,5.318,54.872,4.506,54.872z M15.282,64.166h-2.534
	v-3.981c0-0.949-0.019-2.166-1.32-2.166c-1.32,0-1.523,1.031-1.523,2.097v4.05H7.368v-8.179h2.436v1.116h0.036
	c0.339-0.643,1.167-1.321,2.403-1.321c2.57,0,3.043,1.693,3.043,3.891v4.493H15.282z"/>
<path fill="#010101" d="M9.16,76.26c-3.739,0-6.781,3.042-6.781,6.781s3.042,6.781,6.781,6.781s6.781-3.042,6.781-6.781
	C15.941,79.302,12.899,76.26,9.16,76.26z M13.644,79.388c0.807,0.986,1.295,2.241,1.308,3.608c-0.191-0.04-2.106-0.429-4.033-0.186
	c-0.157-0.384-0.306-0.722-0.509-1.138C12.551,80.797,13.521,79.553,13.644,79.388z M13,78.718c-0.104,0.148-0.976,1.32-3.036,2.092
	c-0.949-1.744-2.001-3.176-2.161-3.391C9.639,76.976,11.575,77.454,13,78.718z M6.697,77.809c0.153,0.209,1.188,1.644,2.147,3.35
	c-2.709,0.719-5.096,0.709-5.355,0.706C3.866,80.067,5.077,78.573,6.697,77.809z M3.368,83.05c0-0.059,0.001-0.118,0.003-0.177
	c0.253,0.005,3.06,0.041,5.953-0.824c0.166,0.325,0.324,0.654,0.47,0.983c-2.095,0.59-3.997,2.284-4.936,3.891
	C3.932,85.896,3.368,84.538,3.368,83.05z M5.605,87.62c0.605-1.237,2.247-2.833,4.582-3.63c0.813,2.113,1.15,3.884,1.236,4.392
	C9.56,89.176,7.321,88.958,5.605,87.62z M12.396,87.852c-0.059-0.352-0.368-2.048-1.125-4.13c1.815-0.291,3.41,0.185,3.608,0.248
	C14.621,85.582,13.696,86.973,12.396,87.852z"/>
<path fill="#010101" d="M10.966,107.29c0.05,0.265,0.086,0.53,0.086,0.874c0,3.001-2.013,5.128-5.042,5.128
	c-2.901,0-5.25-2.349-5.25-5.25c0-2.901,2.349-5.25,5.25-5.25c1.418,0,2.6,0.516,3.517,1.375l-1.425,1.368
	c-0.387-0.372-1.067-0.809-2.091-0.809c-1.791,0-3.252,1.483-3.252,3.316c0,1.834,1.461,3.316,3.252,3.316
	c2.077,0,2.858-1.497,2.98-2.263H6.01v-1.805L10.966,107.29L10.966,107.29z M16.036,107.466v-1.524h-1.531v1.524h-1.524v1.531h1.524
	v1.524h1.531v-1.524h1.524v-1.531C17.56,107.466,16.036,107.466,16.036,107.466z"/>
<path fill="#010101" d="M14.81,136.769l-2.605-1.117c-0.229-0.097-0.494-0.032-0.651,0.161l-1.154,1.41
	c-1.811-0.854-3.268-2.311-4.122-4.122l1.41-1.154c0.193-0.157,0.258-0.423,0.161-0.651l-1.117-2.605
	c-0.108-0.247-0.376-0.383-0.64-0.323l-2.419,0.558c-0.253,0.059-0.433,0.284-0.433,0.544c0,5.967,4.836,10.793,10.793,10.793
	c0.26,0,0.486-0.179,0.544-0.433l0.558-2.419C15.195,137.147,15.059,136.878,14.81,136.769z"/>
<path fill="#010101" d="M14.574,158.483c0.091-0.072,0.226-0.005,0.226,0.109v4.757c0,0.616-0.5,1.117-1.117,1.117H4.007
	c-0.616,0-1.117-0.5-1.117-1.117v-4.755c0-0.116,0.133-0.181,0.226-0.109c0.521,0.405,1.212,0.919,3.585,2.642
	c0.491,0.358,1.319,1.112,2.145,1.107c0.83,0.007,1.675-0.763,2.147-1.107C13.365,159.404,14.053,158.887,14.574,158.483z
	 M8.845,161.488c0.54,0.009,1.317-0.679,1.707-0.963c3.087-2.24,3.322-2.435,4.034-2.994c0.135-0.105,0.214-0.268,0.214-0.44v-0.442
	c0-0.616-0.5-1.117-1.117-1.117H4.007c-0.616,0-1.117,0.5-1.117,1.117v0.442c0,0.172,0.079,0.333,0.214,0.44
	c0.712,0.556,0.947,0.754,4.034,2.994C7.528,160.809,8.305,161.497,8.845,161.488z"/>
<path fill="#010101" d="M9.005,182.05c1.933,0,3.5-1.567,3.5-3.5c0-1.933-1.567-3.5-3.5-3.5s-3.5,1.567-3.5,3.5
	C5.505,180.483,7.072,182.05,9.005,182.05z M11.455,182.925h-0.457c-0.607,0.279-1.282,0.438-1.993,0.438s-1.384-0.159-1.993-0.438
	H6.555c-2.029,0-3.675,1.646-3.675,3.675v1.137c0,0.725,0.588,1.313,1.313,1.313h9.625c0.725,0,1.313-0.588,1.313-1.313V186.6
	C15.13,184.571,13.484,182.925,11.455,182.925z"/>
<path fill="#010101" d="M8.22,200.187l-1.786,3.62l-3.995,0.582c-0.716,0.104-1.004,0.987-0.484,1.493l2.89,2.816l-0.684,3.979
	c-0.123,0.719,0.634,1.258,1.269,0.921l3.574-1.879l3.574,1.879c0.634,0.334,1.392-0.202,1.269-0.921l-0.684-3.979l2.89-2.816
	c0.52-0.506,0.232-1.389-0.484-1.493l-3.995-0.582l-1.786-3.62C9.47,199.541,8.543,199.533,8.22,200.187z"/>
<path fill="#010101" d="M15.557,232.115h-0.83c-0.38-2.561-2.405-4.586-4.967-4.967v-0.83c0-0.181-0.147-0.328-0.328-0.328H8.338
	c-0.181,0-0.328,0.147-0.328,0.328v0.83c-2.561,0.38-4.586,2.405-4.967,4.967h-0.83c-0.181,0-0.328,0.147-0.328,0.328v1.094
	c0,0.181,0.147,0.328,0.328,0.328h0.83c0.38,2.561,2.405,4.586,4.967,4.967v0.83c0,0.181,0.147,0.328,0.328,0.328h1.094
	c0.181,0,0.328-0.147,0.328-0.328v-0.83c2.561-0.38,4.586-2.405,4.967-4.967h0.83c0.181,0,0.328-0.147,0.328-0.328v-1.094
	C15.885,232.262,15.738,232.115,15.557,232.115z M9.76,237.054v-1.111c0-0.181-0.147-0.328-0.328-0.328H8.338
	c-0.181,0-0.328,0.147-0.328,0.328v1.111c-1.591-0.339-2.85-1.597-3.189-3.189h1.111c0.181,0,0.328-0.147,0.328-0.328v-1.094
	c0-0.181-0.147-0.328-0.328-0.328H4.821c0.339-1.591,1.597-2.85,3.189-3.189v1.111c0,0.181,0.147,0.328,0.328,0.328h1.094
	c0.181,0,0.328-0.147,0.328-0.328v-1.111c1.591,0.339,2.85,1.597,3.189,3.189h-1.111c-0.181,0-0.328,0.147-0.328,0.328v1.094
	c0,0.181,0.147,0.328,0.328,0.328h1.111C12.61,235.456,11.353,236.715,9.76,237.054z M9.76,232.99c0,0.483-0.392,0.875-0.875,0.875
	c-0.483,0-0.875-0.392-0.875-0.875s0.392-0.875,0.875-0.875C9.368,232.115,9.76,232.507,9.76,232.99z"/>
<path fill="#010101" d="M15.571,259.199l1.293-5.687c0.093-0.411-0.219-0.802-0.64-0.802H5.483l-0.251-1.225
	c-0.062-0.305-0.331-0.525-0.643-0.525H1.786c-0.362,0-0.656,0.294-0.656,0.656v0.438c0,0.362,0.294,0.656,0.656,0.656h1.911
	l1.921,9.391c-0.46,0.264-0.769,0.76-0.769,1.328c0,0.846,0.686,1.531,1.531,1.531s1.531-0.686,1.531-1.531
	c0-0.429-0.176-0.816-0.46-1.094h5.733c-0.284,0.278-0.46,0.665-0.46,1.094c0,0.846,0.686,1.531,1.531,1.531
	s1.531-0.686,1.531-1.531c0-0.606-0.352-1.13-0.863-1.378l0.151-0.664c0.093-0.411-0.219-0.802-0.64-0.802h-7.34l-0.179-0.875h8.016
	C15.237,259.71,15.503,259.498,15.571,259.199z"/>
<path fill="#010101" d="M13.818,281.845h-0.656v-1.969c0-2.291-1.865-4.156-4.156-4.156s-4.156,1.865-4.156,4.156v1.969H4.193
	c-0.725,0-1.313,0.588-1.313,1.313v5.25c0,0.725,0.588,1.313,1.313,1.313h9.625c0.725,0,1.313-0.588,1.313-1.313v-5.25
	C15.13,282.433,14.542,281.845,13.818,281.845z M10.974,281.845H7.036v-1.969c0-1.086,0.883-1.969,1.969-1.969
	s1.969,0.883,1.969,1.969V281.845z"/>
</svg>
